<?xml version="1.0" encoding="utf-8"?>
<!-- Generator: Adobe Illustrator 19.1.0, SVG Export Plug-In . SVG Version: 6.00 Build 0)  -->
<svg version="1.1" id="Layer_1" xmlns="http://www.w3.org/2000/svg" xmlns:xlink="http://www.w3.org/1999/xlink" x="0px" y="0px"
	 width="113px" height="113px" viewBox="-846 448 113 113" style="enable-background:new -846 448 113 113;" xml:space="preserve">
<style type="text/css">
	.st0{fill:none;stroke:#F4EB84;stroke-width:5;stroke-miterlimit:10;}
	.st1{fill:#11D1D1;}
</style>
<path id="Layer_1_1_" class="st0" d="M-843.5,450.5h108v108h-108V450.5z"/>
<path id="Behance" class="st1" d="M-758.8,484.9h-18.5v-4.6h18.5V484.9z M-789.6,503.7c1.2,1.8,1.8,4.1,1.8,6.7c0,2.7-0.7,5.2-2,7.3
	c-0.9,1.4-2,2.6-3.2,3.6c-1.5,1.1-3.2,1.9-5.2,2.3s-4.2,0.6-6.5,0.6h-20.8v-45.8h22.2c5.6,0.1,9.6,1.7,11.9,4.9c1.4,2,2.1,4.3,2.1,7
	c0,2.8-0.7,5.1-2.1,6.8c-0.8,1-2,1.8-3.5,2.6C-792.6,500.5-790.8,501.9-789.6,503.7L-789.6,503.7z M-814.9,496.5h9.7
	c2,0,3.6-0.4,4.9-1.1c1.2-0.8,1.9-2.1,1.9-4c0-2.1-0.8-3.6-2.5-4.2c-1.4-0.5-3.2-0.7-5.4-0.7h-8.6V496.5L-814.9,496.5z
	 M-797.5,509.8c0-2.4-1-4-2.9-4.9c-1.1-0.5-2.6-0.8-4.6-0.8h-9.9v12.2h9.7c2,0,3.5-0.3,4.7-0.8
	C-798.5,514.5-797.5,512.6-797.5,509.8L-797.5,509.8z M-752,502.3c0.2,1.5,0.3,3.7,0.3,6.5h-24c0.1,3.3,1.3,5.6,3.4,6.9
	c1.3,0.8,2.9,1.2,4.7,1.2c2,0,3.5-0.5,4.8-1.5c0.7-0.5,1.3-1.3,1.8-2.3h8.8c-0.2,2-1.3,3.9-3.2,5.9c-2.9,3.2-7.1,4.8-12.4,4.8
	c-4.4,0-8.2-1.4-11.6-4c-3.3-2.7-5-7.1-5-13.2c0-5.7,1.5-10.1,4.5-13.1s6.9-4.6,11.8-4.6c2.9,0,5.4,0.5,7.7,1.5s4.2,2.6,5.7,4.9
	C-753.2,497.5-752.4,499.7-752,502.3L-752,502.3z M-760.6,503.2c-0.2-2.3-0.9-4-2.3-5.2s-3.1-1.8-5.1-1.8c-2.2,0-3.9,0.6-5.1,1.9
	c-1.2,1.2-2,2.9-2.3,5.1H-760.6z"/>
</svg>
