<?xml version="1.0" encoding="utf-8"?>
<!-- Generator: Adobe Illustrator 19.1.0, SVG Export Plug-In . SVG Version: 6.00 Build 0)  -->
<svg version="1.1" id="Layer_1" xmlns="http://www.w3.org/2000/svg" xmlns:xlink="http://www.w3.org/1999/xlink" x="0px" y="0px"
	 width="113px" height="113px" viewBox="-846 448 113 113" style="enable-background:new -846 448 113 113;" xml:space="preserve">
<style type="text/css">
	.st0{fill:none;stroke:#F4EB84;stroke-width:5;stroke-miterlimit:10;}
	.st1{fill:#11D1D1;}
</style>
<path id="Layer_1_1_" class="st0" d="M-843.5,450.5h108v108h-108V450.5z"/>
<path id="LinkedIn" class="st1" d="M-765.6,506.5v17.7h-10.2v-16.5c0-4.1-1.5-7-5.2-7c-2.8,0-4.5,1.9-5.3,3.7
	c-0.3,0.7-0.3,1.6-0.3,2.5v17.2h-10.3c0,0,0.1-27.9,0-30.8h10.2v4.4c0,0,0,0.1-0.1,0.1h0.1v-0.1c1.4-2.1,3.8-5.1,9.2-5.1
	C-770.7,492.6-765.6,497-765.6,506.5L-765.6,506.5z M-807.6,478.5c-3.5,0-5.8,2.3-5.8,5.3s2.2,5.3,5.7,5.3h0.1
	c3.6,0,5.8-2.4,5.8-5.3C-801.9,480.8-804.1,478.5-807.6,478.5L-807.6,478.5z M-812.8,524.2h10.2v-30.8h-10.2V524.2z"/>
</svg>
