<svg xmlns="http://www.w3.org/2000/svg" width="113" height="113" viewBox="0 0 113 113"><style type="text/css">.st0{fill:#F4EB84;} .st1{fill:#FFFFFF;}</style><path class="st0" d="M113 113h-113v-113h113v113zm-108-5h103v-103h-103v103z" id="Layer_1_3_"/><path class="st1" d="M87.1 37.8c-2.3 1-4.7 1.7-7.3 2 2.6-1.6 4.6-4.1 5.6-7-2.5 1.5-5.2 2.5-8.1 3.1-2.3-2.5-5.6-4-9.3-4-7 0-12.7 5.7-12.7 12.7 0 1 .1 2 .3 2.9-10.6-.5-20-5.6-26.2-13.3-1.1 1.9-1.7 4.1-1.7 6.4 0 4.4 2.2 8.3 5.7 10.6-2.1-.1-4.1-.6-5.8-1.6v.2c0 6.2 4.4 11.3 10.2 12.5-1.1.3-2.2.4-3.4.4-.8 0-1.6-.1-2.4-.2 1.6 5.1 6.3 8.7 11.9 8.8-4.4 3.4-9.8 5.5-15.8 5.5-1 0-2-.1-3-.2 5.6 3.6 12.3 5.7 19.5 5.7 23.4 0 36.2-19.4 36.2-36.2v-1.6c2.4-1.9 4.6-4.1 6.3-6.7z"/></svg>